<svg xmlns="http://www.w3.org/2000/svg" viewBox="0 0 800 420"><defs><linearGradient id="bg" x1="0" y1="0" x2="1" y2="1"><stop stop-color="#17213b"/><stop offset="1" stop-color="#1a6b72"/></linearGradient><linearGradient id="shield" x1="0" y1="0" x2="1" y2="1"><stop stop-color="#d4af37"/><stop offset="1" stop-color="#b8955a"/></linearGradient></defs><rect width="800" height="420" fill="url(#bg)"/><circle cx="655" cy="85" r="165" fill="#d4af37" opacity=".13"/><path d="M250 80 L390 130 V230 C390 300 330 335 250 365 C170 335 110 300 110 230 V130Z" fill="url(#shield)" stroke="#f8f4ed" stroke-width="10"/><path d="M175 225 L225 270 325 165" fill="none" stroke="#17213b" stroke-width="20" stroke-linecap="round" stroke-linejoin="round"/><rect x="455" y="95" width="255" height="225" rx="16" fill="#f8f4ed" opacity=".97"/><text x="485" y="137" font-family="Arial" font-size="20" font-weight="bold" fill="#17213b">CREDIT RISK</text><text x="485" y="173" font-family="Arial" font-size="15" fill="#52616b">Probabilité de défaut</text><text x="485" y="215" font-family="Arial" font-size="34" font-weight="bold" fill="#1a6b72">12.8%</text><rect x="485" y="245" width="190" height="13" rx="6" fill="#dfe8e8"/><rect x="485" y="245" width="72" height="13" rx="6" fill="#2d8a4e"/><text x="485" y="291" font-family="Arial" font-size="14" fill="#2d8a4e">Risque faible</text><text x="105" y="390" font-family="Arial" font-size="29" font-weight="bold" fill="white">CREDIT DEFAULT PREDICTION</text></svg>